<svg width="15" height="15" viewBox="0 0 15 15" fill="none" xmlns="http://www.w3.org/2000/svg">
<path d="M10.2385 5.1709H9.55145C9.40204 5.1709 9.25995 5.24268 9.17206 5.36572L6.86933 8.55908L5.82636 7.11182C5.73847 6.99023 5.59784 6.91699 5.44696 6.91699H4.75995C4.66474 6.91699 4.60907 7.02539 4.66474 7.10303L6.48993 9.63428C6.53305 9.69446 6.58989 9.74349 6.65574 9.77732C6.72159 9.81115 6.79456 9.8288 6.86859 9.8288C6.94263 9.8288 7.01559 9.81115 7.08145 9.77732C7.1473 9.74349 7.20414 9.69446 7.24726 9.63428L10.3322 5.35693C10.3893 5.2793 10.3337 5.1709 10.2385 5.1709Z" fill="#00FF19"/>
<path d="M7.5 0.9375C3.87598 0.9375 0.9375 3.87598 0.9375 7.5C0.9375 11.124 3.87598 14.0625 7.5 14.0625C11.124 14.0625 14.0625 11.124 14.0625 7.5C14.0625 3.87598 11.124 0.9375 7.5 0.9375ZM7.5 12.9492C4.49121 12.9492 2.05078 10.5088 2.05078 7.5C2.05078 4.49121 4.49121 2.05078 7.5 2.05078C10.5088 2.05078 12.9492 4.49121 12.9492 7.5C12.9492 10.5088 10.5088 12.9492 7.5 12.9492Z" fill="#00FF19"/>
</svg>
