<svg width="34" height="34" viewBox="0 0 34 34" fill="none" xmlns="http://www.w3.org/2000/svg">
<circle cx="17" cy="17" r="17" fill="#333740"/>
<g clip-path="url(#clip0_68_551)">
<path fill-rule="evenodd" clip-rule="evenodd" d="M10.885 8.57492C11.06 8.37837 11.2701 8.2259 11.5014 8.12761C11.7327 8.02932 11.9799 7.98746 12.2267 8.00479C12.4735 8.02213 12.7142 8.09828 12.9328 8.22818C13.1515 8.35808 13.3431 8.53878 13.495 8.75829L15.29 11.3525C15.619 11.8284 15.735 12.4483 15.605 13.0333L15.058 15.497C15.0297 15.6247 15.0312 15.7583 15.0624 15.8851C15.0936 16.0118 15.1534 16.1273 15.236 16.2204L17.693 18.9845C17.7758 19.0776 17.8787 19.145 17.9915 19.1801C18.1044 19.2152 18.2234 19.2168 18.337 19.1848L20.526 18.5694C20.7826 18.4972 21.0504 18.4916 21.3093 18.553C21.5681 18.6144 21.8111 18.7412 22.02 18.9238L24.326 20.942C25.155 21.6677 25.231 23.0458 24.489 23.8794L23.455 25.0427C22.715 25.8752 21.609 26.2408 20.578 25.8324C17.9392 24.7879 15.5433 23.0884 13.568 20.8599C11.5873 18.6381 10.0766 15.9431 9.14798 12.9748C8.78598 11.816 9.11098 10.5707 9.85098 9.73817L10.885 8.57492Z" fill="#FFDF2D"/>
</g>
<defs>
<clipPath id="clip0_68_551">
<rect width="16" height="18" fill="white" transform="translate(9 8)"/>
</clipPath>
</defs>
</svg>
