<svg width="25" height="25" viewBox="0 0 25 25" fill="none" xmlns="http://www.w3.org/2000/svg">
<g clip-path="url(#clip0_43_163)">
<path fill-rule="evenodd" clip-rule="evenodd" d="M2.94507 0.798606C3.21847 0.52562 3.54676 0.313853 3.90819 0.17734C4.26962 0.0408273 4.65594 -0.0173148 5.04154 0.00676674C5.42714 0.0308483 5.80322 0.136604 6.14486 0.317025C6.4865 0.497446 6.78589 0.748412 7.0232 1.05329L9.82788 4.65642C10.3419 5.31736 10.5232 6.17829 10.3201 6.99079L9.46538 10.4127C9.4212 10.5899 9.42358 10.7755 9.47231 10.9516C9.52105 11.1276 9.61447 11.2881 9.74351 11.4174L13.5826 15.2564C13.712 15.3857 13.8727 15.4793 14.0491 15.528C14.2254 15.5768 14.4114 15.579 14.5888 15.5345L18.0091 14.6799C18.4101 14.5796 18.8286 14.5718 19.233 14.6571C19.6374 14.7424 20.0172 14.9184 20.3435 15.172L23.9466 17.9752C25.2419 18.983 25.3607 20.897 24.2013 22.0549L22.5857 23.6705C21.4294 24.8267 19.7013 25.3345 18.0904 24.7674C13.9672 23.3166 10.2236 20.9562 7.13726 17.8611C4.0424 14.7752 1.68196 11.0321 0.231009 6.90954C-0.334616 5.30017 0.173197 3.57048 1.32945 2.41423L2.94507 0.798606Z" fill="white"/>
</g>
<defs>
<clipPath id="clip0_43_163">
<rect width="25" height="25" fill="white"/>
</clipPath>
</defs>
</svg>
