<svg width="14" height="14" viewBox="0 0 14 14" fill="none" xmlns="http://www.w3.org/2000/svg">
<path fill-rule="evenodd" clip-rule="evenodd" d="M7.00065 0.583256C7.84345 0.582263 8.67814 0.747786 9.45678 1.07032C10.2354 1.39285 10.9426 1.86603 11.5379 2.46267C12.1345 3.05791 12.6077 3.76517 12.9302 4.54381C13.2528 5.32245 13.4183 6.15713 13.4173 6.99992C13.4183 7.84271 13.2528 8.6774 12.9303 9.45605C12.6077 10.2347 12.1345 10.9419 11.5379 11.5372C10.9427 12.1338 10.2354 12.607 9.45678 12.9295C8.67813 13.2521 7.84344 13.4176 7.00064 13.4166C6.15786 13.4176 5.32318 13.252 4.54454 12.9295C3.76591 12.607 3.05867 12.1338 2.46343 11.5372C1.86677 10.9419 1.39359 10.2347 1.07105 9.45605C0.748518 8.6774 0.582995 7.84271 0.583989 6.99991C0.583014 6.15712 0.748544 5.32244 1.07108 4.54381C1.39361 3.76518 1.86678 3.05793 2.46343 2.46269C3.05866 1.86605 3.76591 1.39288 4.54454 1.07034C5.32318 0.747811 6.15786 0.582281 7.00065 0.583256ZM7.00066 12.8333L7.00141 12.2499C7.69074 12.2508 8.37345 12.1155 9.0103 11.8517C9.64716 11.5879 10.2256 11.2008 10.7124 10.7127L10.7135 10.7116C11.2015 10.2249 11.5886 9.64642 11.8524 9.00957C12.1162 8.37272 12.2515 7.69001 12.2507 7.00068V6.99918C12.2515 6.30985 12.1162 5.62714 11.8524 4.99029C11.5886 4.35343 11.2015 3.77498 10.7135 3.28819L10.7124 3.28711C10.2256 2.79904 9.64716 2.41198 9.0103 2.14818C8.37345 1.88437 7.69074 1.74903 7.00141 1.74992H6.99991C6.31058 1.74904 5.62787 1.8844 4.99102 2.1482C4.35416 2.412 3.77572 2.79905 3.28892 3.28712L3.28785 3.28819C2.79979 3.77498 2.41273 4.35343 2.14893 4.99029C1.88513 5.62714 1.74978 6.30985 1.75066 6.99918V7.00068C1.74976 7.69001 1.88511 8.37272 2.14891 9.00957C2.41271 9.64642 2.79977 10.2249 3.28784 10.7116L3.28892 10.7127C3.77572 11.2008 4.35416 11.5878 4.99102 11.8516C5.62787 12.1155 6.31058 12.2508 6.99991 12.2499L7.00066 12.8333Z" fill="#FF0000"/>
<path fill-rule="evenodd" clip-rule="evenodd" d="M7.00065 10.7916C7.19404 10.7916 7.3795 10.7148 7.51625 10.578C7.653 10.4413 7.72982 10.2558 7.72982 10.0624C7.72982 9.86903 7.653 9.68356 7.51625 9.54682C7.3795 9.41007 7.19404 9.33325 7.00065 9.33325C6.80726 9.33325 6.6218 9.41007 6.48505 9.54682C6.34831 9.68356 6.27148 9.86903 6.27148 10.0624C6.27148 10.2558 6.34831 10.4413 6.48505 10.578C6.6218 10.7148 6.80726 10.7916 7.00065 10.7916Z" fill="#FF0000"/>
<path fill-rule="evenodd" clip-rule="evenodd" d="M7.0013 2.9165C7.32347 2.9165 7.58464 3.17767 7.58464 3.49984V8.1665C7.58464 8.48867 7.32347 8.74984 7.0013 8.74984C6.67914 8.74984 6.41797 8.48867 6.41797 8.1665V3.49984C6.41797 3.17767 6.67914 2.9165 7.0013 2.9165Z" fill="#FF0000"/>
</svg>
