<svg width="614" height="614" viewBox="0 0 614 614" fill="none" xmlns="http://www.w3.org/2000/svg">
<path d="M515 348C515 375.052 509.672 401.84 499.319 426.833C488.967 451.826 473.793 474.535 454.664 493.664C435.535 512.793 412.826 527.967 387.833 538.319C362.84 548.672 336.052 554 309 554V500.44C329.019 500.44 348.841 496.497 367.336 488.836C385.831 481.175 402.636 469.947 416.791 455.791C430.947 441.636 442.175 424.831 449.836 406.336C457.497 387.841 461.44 368.019 461.44 348H515Z" fill="#FFDF2D"/>
<path d="M515 344C515 316.948 509.672 290.16 499.319 265.167C488.967 240.174 473.793 217.465 454.664 198.336C435.535 179.207 412.826 164.033 387.833 153.681C362.84 143.328 336.052 138 309 138V191.56C329.019 191.56 348.841 195.503 367.336 203.164C385.831 210.825 402.636 222.053 416.791 236.209C430.947 250.364 442.175 267.169 449.836 285.664C457.497 304.159 461.44 323.981 461.44 344H515Z" fill="#FFDF2D"/>
<path d="M305 554C277.948 554 251.16 548.672 226.167 538.319C201.174 527.967 178.465 512.793 159.336 493.664C140.207 474.535 125.033 451.826 114.681 426.833C104.328 401.84 99 375.052 99 348L152.56 348C152.56 368.019 156.503 387.841 164.164 406.336C171.825 424.831 183.053 441.636 197.209 455.791C211.364 469.947 228.169 481.175 246.664 488.836C265.159 496.497 284.981 500.44 305 500.44L305 554Z" fill="#FFDF2D"/>
<path d="M305 138C277.948 138 251.16 143.328 226.167 153.681C201.174 164.033 178.465 179.207 159.336 198.336C140.207 217.465 125.033 240.174 114.681 265.167C104.328 290.16 99 316.948 99 344L152.56 344C152.56 323.981 156.503 304.159 164.164 285.664C171.825 267.169 183.053 250.364 197.209 236.209C211.364 222.053 228.169 210.825 246.664 203.164C265.159 195.503 284.981 191.56 305 191.56L305 138Z" fill="#FFDF2D"/>
<path d="M366.319 90.1934C367.156 89.4727 368.419 89.5672 369.139 90.4043L380.882 104.046C381.603 104.883 381.508 106.146 380.671 106.867C379.834 107.587 378.571 107.493 377.851 106.656L367.413 94.5297L355.286 104.968C354.449 105.689 353.186 105.594 352.466 104.757C351.745 103.92 351.84 102.657 352.677 101.936L366.319 90.1934ZM499.454 226.101C485.46 187.408 451.673 168.738 421.195 152.367C406.075 144.245 391.656 136.625 381.337 127.357C370.911 117.993 364.49 106.786 365.629 91.5599L369.618 91.8583C368.596 105.526 374.236 115.603 384.01 124.381C393.892 133.256 407.812 140.637 423.088 148.843C453.403 165.127 488.633 184.419 503.216 224.741L499.454 226.101Z" fill="#FFDF2D"/>
<path d="M371.836 33.5469V65H368.033V38.5098L361.459 41.4316V37.8438L371.256 33.5469H371.836ZM401.611 46.8672V51.6367C401.611 54.2005 401.41 56.3633 401.009 58.125C400.622 59.8867 400.064 61.3047 399.333 62.3789C398.603 63.4531 397.722 64.2337 396.691 64.7207C395.674 65.1934 394.528 65.4297 393.253 65.4297C392.251 65.4297 391.313 65.2793 390.439 64.9785C389.579 64.6777 388.806 64.1979 388.119 63.5391C387.431 62.8659 386.844 61.9922 386.357 60.918C385.87 59.8438 385.497 58.5404 385.24 57.0078C384.982 55.4753 384.853 53.6849 384.853 51.6367V46.8672C384.853 44.3034 385.053 42.1549 385.454 40.4219C385.855 38.6888 386.421 37.2995 387.152 36.2539C387.897 35.194 388.777 34.4349 389.794 33.9766C390.826 33.5182 391.971 33.2891 393.232 33.2891C394.249 33.2891 395.187 33.4395 396.046 33.7402C396.92 34.0267 397.693 34.4922 398.367 35.1367C399.054 35.7669 399.641 36.612 400.128 37.6719C400.615 38.7174 400.98 39.9993 401.224 41.5176C401.482 43.0358 401.611 44.819 401.611 46.8672ZM397.829 52.2812V46.2012C397.829 44.7975 397.765 43.5658 397.636 42.5059C397.507 41.4316 397.321 40.515 397.077 39.7559C396.834 38.9967 396.519 38.3809 396.132 37.9082C395.76 37.4355 395.33 37.0918 394.843 36.877C394.356 36.6478 393.819 36.5332 393.232 36.5332C392.501 36.5332 391.85 36.7122 391.277 37.0703C390.718 37.4141 390.238 37.9655 389.837 38.7246C389.451 39.4837 389.157 40.4792 388.956 41.7109C388.756 42.9427 388.656 44.4395 388.656 46.2012V52.2812C388.656 53.6849 388.72 54.9238 388.849 55.998C388.992 57.0723 389.186 58.0033 389.429 58.791C389.687 59.5645 390.002 60.2018 390.374 60.7031C390.747 61.2044 391.176 61.5768 391.663 61.8203C392.15 62.0495 392.68 62.1641 393.253 62.1641C394.012 62.1641 394.671 61.9779 395.23 61.6055C395.803 61.2331 396.283 60.653 396.669 59.8652C397.056 59.0632 397.342 58.0391 397.529 56.793C397.729 55.5326 397.829 54.0286 397.829 52.2812ZM425.993 46.8672V51.6367C425.993 54.2005 425.792 56.3633 425.391 58.125C425.005 59.8867 424.446 61.3047 423.716 62.3789C422.985 63.4531 422.104 64.2337 421.073 64.7207C420.056 65.1934 418.91 65.4297 417.635 65.4297C416.633 65.4297 415.695 65.2793 414.821 64.9785C413.962 64.6777 413.188 64.1979 412.501 63.5391C411.813 62.8659 411.226 61.9922 410.739 60.918C410.252 59.8438 409.88 58.5404 409.622 57.0078C409.364 55.4753 409.235 53.6849 409.235 51.6367V46.8672C409.235 44.3034 409.436 42.1549 409.837 40.4219C410.238 38.6888 410.803 37.2995 411.534 36.2539C412.279 35.194 413.16 34.4349 414.176 33.9766C415.208 33.5182 416.354 33.2891 417.614 33.2891C418.631 33.2891 419.569 33.4395 420.428 33.7402C421.302 34.0267 422.076 34.4922 422.749 35.1367C423.436 35.7669 424.023 36.612 424.51 37.6719C424.997 38.7174 425.363 39.9993 425.606 41.5176C425.864 43.0358 425.993 44.819 425.993 46.8672ZM422.212 52.2812V46.2012C422.212 44.7975 422.147 43.5658 422.018 42.5059C421.889 41.4316 421.703 40.515 421.46 39.7559C421.216 38.9967 420.901 38.3809 420.514 37.9082C420.142 37.4355 419.712 37.0918 419.225 36.877C418.738 36.6478 418.201 36.5332 417.614 36.5332C416.884 36.5332 416.232 36.7122 415.659 37.0703C415.1 37.4141 414.62 37.9655 414.219 38.7246C413.833 39.4837 413.539 40.4792 413.339 41.7109C413.138 42.9427 413.038 44.4395 413.038 46.2012V52.2812C413.038 53.6849 413.102 54.9238 413.231 55.998C413.374 57.0723 413.568 58.0033 413.811 58.791C414.069 59.5645 414.384 60.2018 414.757 60.7031C415.129 61.2044 415.559 61.5768 416.046 61.8203C416.533 62.0495 417.063 62.1641 417.635 62.1641C418.395 62.1641 419.053 61.9779 419.612 61.6055C420.185 61.2331 420.665 60.653 421.051 59.8652C421.438 59.0632 421.725 58.0391 421.911 56.793C422.111 55.5326 422.212 54.0286 422.212 52.2812ZM433.445 41.3887V39.7344C433.445 38.5456 433.66 37.4642 434.09 36.4902C434.534 35.5163 435.164 34.7357 435.981 34.1484C436.797 33.5612 437.771 33.2676 438.902 33.2676C440.063 33.2676 441.051 33.5612 441.867 34.1484C442.698 34.7357 443.328 35.5163 443.758 36.4902C444.188 37.4642 444.402 38.5456 444.402 39.7344V41.3887C444.402 42.5488 444.188 43.6159 443.758 44.5898C443.328 45.5638 442.705 46.3444 441.889 46.9316C441.072 47.5189 440.091 47.8125 438.945 47.8125C437.8 47.8125 436.811 47.5189 435.981 46.9316C435.164 46.3444 434.534 45.5638 434.09 44.5898C433.66 43.6159 433.445 42.5488 433.445 41.3887ZM436.238 39.7344V41.3887C436.238 42.0475 436.331 42.6706 436.518 43.2578C436.718 43.8451 437.019 44.3249 437.42 44.6973C437.821 45.0553 438.33 45.2344 438.945 45.2344C439.547 45.2344 440.041 45.0553 440.428 44.6973C440.829 44.3249 441.122 43.8451 441.309 43.2578C441.509 42.6706 441.609 42.0475 441.609 41.3887V39.7344C441.609 39.0612 441.509 38.431 441.309 37.8438C441.108 37.2422 440.807 36.7624 440.406 36.4043C440.02 36.0319 439.518 35.8457 438.902 35.8457C438.301 35.8457 437.8 36.0319 437.399 36.4043C437.012 36.7624 436.718 37.2422 436.518 37.8438C436.331 38.431 436.238 39.0612 436.238 39.7344ZM446.078 59.0059V57.3301C446.078 56.1556 446.293 55.0814 446.723 54.1074C447.167 53.1335 447.797 52.3529 448.613 51.7656C449.444 51.1784 450.425 50.8848 451.557 50.8848C452.703 50.8848 453.684 51.1784 454.5 51.7656C455.316 52.3529 455.94 53.1335 456.369 54.1074C456.813 55.0814 457.035 56.1556 457.035 57.3301V59.0059C457.035 60.1803 456.813 61.2546 456.369 62.2285C455.94 63.2025 455.316 63.9831 454.5 64.5703C453.698 65.1576 452.724 65.4512 451.578 65.4512C450.432 65.4512 449.444 65.1576 448.613 64.5703C447.797 63.9831 447.167 63.2025 446.723 62.2285C446.293 61.2546 446.078 60.1803 446.078 59.0059ZM448.871 57.3301V59.0059C448.871 59.6647 448.971 60.2949 449.172 60.8965C449.372 61.4837 449.673 61.9635 450.074 62.3359C450.475 62.694 450.977 62.873 451.578 62.873C452.18 62.873 452.674 62.694 453.061 62.3359C453.462 61.9635 453.755 61.4837 453.941 60.8965C454.142 60.3092 454.242 59.679 454.242 59.0059V57.3301C454.242 56.6569 454.142 56.0267 453.941 55.4395C453.741 54.8522 453.44 54.3796 453.039 54.0215C452.652 53.6491 452.158 53.4629 451.557 53.4629C450.955 53.4629 450.454 53.6491 450.053 54.0215C449.666 54.3796 449.372 54.8522 449.172 55.4395C448.971 56.0267 448.871 56.6569 448.871 57.3301ZM452.566 38.166L439.74 62.6152L437.635 61.1973L450.482 36.748L452.566 38.166Z" fill="#FFDF2D"/>
<g clip-path="url(#clip0_68_387)">
<path fill-rule="evenodd" clip-rule="evenodd" d="M252.052 253.51C239.152 255.874 229.01 265.092 225.255 277.866C223.922 282.403 223.606 289.359 224.525 293.95C226.625 304.445 233.62 313.737 242.835 318.27L244.607 319.142V352.738V386.334L246.217 387.882C250.173 391.687 256.492 397.135 257.216 397.364C258.564 397.79 259.605 397.084 265.516 391.733L271.235 386.555L271.233 379.829L271.23 373.103L269.545 370.116C268.618 368.473 267.86 366.998 267.86 366.837C267.86 366.676 268.618 365.201 269.545 363.558L271.23 360.571L271.233 354.913L271.235 349.254L269.489 346.188L267.742 343.122L269.489 339.832L271.235 336.542V327.773V319.005L272.179 318.765C272.932 318.574 273.444 318.824 274.711 319.999C278.976 323.958 286.254 328.754 291.609 331.137L294.494 332.421L287.777 339.286C281.407 345.795 281.025 346.269 280.404 348.425C279.855 350.334 279.818 351.028 280.174 352.757C280.712 355.363 282.168 357.502 284.242 358.733L285.862 359.694V381.303V402.912H284.737C284.112 402.912 283.278 403.249 282.862 403.671C282.166 404.376 282.112 404.937 282.112 411.428V418.426L283.1 419.213L284.088 420H339.756C381.359 420 395.631 419.888 396.243 419.558C397.961 418.632 397.976 418.518 397.988 406.028L398 394.143L397.079 393.212C396.324 392.446 395.787 392.279 394.079 392.279H391.999V374.06V355.84L393.463 355.084C398.685 352.387 399.35 344.844 394.662 341.475C393.462 340.613 392.613 339.206 389.441 332.817C385.324 324.525 384.041 322.797 380.667 320.997L378.685 319.94L359.933 319.831L341.181 319.723L341.162 315.275C341.139 309.792 340.533 307.34 337.809 301.712C329.858 285.281 310.267 271.925 290.656 269.567L286.754 269.097L285.522 267.288C283.696 264.607 278.937 260.169 275.689 258.119C268.784 253.762 260.013 252.051 252.052 253.51ZM263.429 259.543C269.093 260.759 273.555 263.246 277.827 267.569C280.381 270.154 281.164 271.265 282.775 274.594C285.302 279.815 286.021 283.206 285.777 288.762C285.445 296.313 283.063 301.664 277.475 307.407L274.152 310.824L273.046 309.496C272.438 308.766 271.298 307.18 270.514 305.972L269.088 303.776L271.595 301.225C276.618 296.117 278.447 289.029 276.54 282.067C274.02 272.867 264.683 266.684 255.354 268.04C242.254 269.944 234.849 284.053 240.656 296.043C244.527 304.036 252.409 308.024 261.683 306.683L263.57 306.411L264.42 307.942C264.887 308.785 265.962 310.36 266.807 311.443C268.258 313.302 268.306 313.442 267.656 313.923C267.277 314.204 266.834 314.434 266.673 314.434C266.511 314.434 266.122 314.938 265.807 315.554C265.34 316.467 265.235 318.368 265.235 325.85V335.025L263.299 338.495C262.235 340.403 261.363 342.409 261.362 342.953C261.361 343.496 262.231 345.527 263.297 347.467L265.235 350.992L265.228 355.022L265.221 359.052L263.326 362.47C262.283 364.35 261.418 366.332 261.402 366.876C261.386 367.42 262.242 369.491 263.304 371.48L265.235 375.096V379.654V384.213L263.207 385.967L261.179 387.721L261.051 382.225C260.931 377.141 260.859 376.667 260.086 375.885C259.059 374.846 256.887 374.747 255.947 375.697C255.406 376.244 255.265 377.32 255.109 382.099L254.921 387.843L252.765 385.846L250.608 383.849V350.305C250.608 330.449 250.465 316.381 250.258 315.829C250.002 315.147 248.818 314.356 245.851 312.882C242.287 311.113 241.384 310.45 238.412 307.43C232.846 301.77 230.435 296.453 230.071 289.037C229.765 282.795 230.933 277.873 233.958 272.647C237.774 266.053 245.053 260.961 252.886 259.405C255.497 258.886 260.685 258.955 263.429 259.543ZM260.435 274.228C262.071 274.578 264.231 275.41 264.796 275.906C264.865 275.966 264.185 276.929 263.287 278.046C259.15 283.189 257.817 291.188 259.947 298.089C260.363 299.437 260.645 300.6 260.573 300.673C260.318 300.931 256.024 300.862 254.734 300.578C251.154 299.792 247.461 296.736 245.779 293.168C244.919 291.343 244.795 290.602 244.798 287.282C244.801 284.022 244.927 283.243 245.692 281.776C247.75 277.827 250.551 275.449 254.371 274.41C256.913 273.718 257.916 273.688 260.435 274.228ZM293.415 276.302C305.115 278.548 316.091 284.62 324.691 293.605C330.564 299.739 333.928 305.51 335.174 311.585C335.749 314.388 335.72 317.619 335.106 319.24C334.955 319.638 333.575 319.75 328.83 319.75C322.766 319.75 322.744 319.747 321.838 318.764C321.338 318.222 320.169 317.325 319.241 316.771C317.841 315.934 317.106 315.764 314.928 315.772C313.114 315.78 311.897 316 310.99 316.484C310.268 316.87 307.314 319.55 304.426 322.44L299.175 327.694L296.175 326.449C290.102 323.93 284.458 320.516 279.738 316.506L278.378 315.35L281.868 311.759C287.034 306.443 289.901 301.041 291.318 293.956C292.143 289.831 291.905 282.481 290.817 278.454C290.408 276.94 290.12 275.7 290.177 275.7C290.233 275.7 291.691 275.971 293.415 276.302ZM270.684 283.832C272.012 288.358 270.608 293.878 267.354 296.926L266.383 297.836L265.988 296.785C264.29 292.264 265.2 285.353 267.936 281.993C269.047 280.628 269.145 280.585 269.624 281.248C269.904 281.636 270.381 282.799 270.684 283.832ZM329.673 335.421C336.958 342.779 343.156 349.254 343.448 349.81C343.859 350.593 343.887 351.086 343.571 352.001C343.094 353.389 342.256 353.926 340.569 353.926C339.464 353.926 338.205 352.776 327.625 342.1L315.906 330.273L314.122 330.521C312.301 330.774 306.114 330.091 306.114 329.637C306.114 329.5 307.884 327.624 310.047 325.469C313.772 321.757 314.044 321.564 315.204 321.797C316.177 321.992 319.143 324.785 329.673 335.421ZM377.972 326.549C379.887 327.43 380.391 328.172 383.475 334.654L385.958 339.876H364.315H342.674L335.743 332.851L328.812 325.826L352.624 325.834C375.034 325.842 376.525 325.884 377.972 326.549ZM305.083 335.735C306.476 336.019 307.615 336.346 307.615 336.461C307.615 336.576 303.767 340.552 299.064 345.298C291.287 353.145 290.398 353.926 289.243 353.926C287.498 353.926 286.237 352.673 286.237 350.939C286.237 349.712 286.826 349.004 293.457 342.248C299.63 335.958 300.812 334.916 301.614 335.055C302.13 335.145 303.691 335.451 305.083 335.735ZM336.965 359.212L337.999 359.606L337.902 381.164L337.806 402.722L331.899 402.826L325.992 402.931V392.651V382.372L325.071 381.44L324.151 380.507H315.163C310.22 380.507 305.903 380.614 305.569 380.743C304.052 381.333 303.864 382.688 303.864 393.03V402.931L297.957 402.826L292.05 402.722L291.954 381.26L291.857 359.798L293.103 359.119C293.788 358.745 298.977 353.751 304.633 348.021L314.917 337.603L325.424 348.211C331.202 354.044 336.396 358.995 336.965 359.212ZM390.938 346.58C391.78 347.351 391.825 348.732 391.035 349.532C390.514 350.06 388.115 350.129 370.308 350.129H350.17L349.52 348.274C349.162 347.254 348.869 346.314 348.869 346.185C348.869 346.057 358.181 345.952 369.561 345.952C388.288 345.952 390.318 346.011 390.938 346.58ZM255.924 348.349C255.176 349.156 255.109 349.622 255.109 354.03C255.109 358.482 255.169 358.89 255.93 359.607C257.494 361.083 259.995 360.467 260.695 358.434C261.219 356.912 261.236 350.894 260.72 349.52C259.909 347.361 257.408 346.751 255.924 348.349ZM310.346 349.031C303.9 351.54 301.072 359.769 304.478 366.106C307.496 371.72 314.444 373.901 320.189 371.037C324.298 368.989 326.41 365.696 326.657 360.951C326.866 356.926 325.919 354.269 323.348 351.666C320.071 348.347 314.831 347.286 310.346 349.031ZM318.025 355.063C320.735 356.736 321.645 360.809 319.896 363.438C316.584 368.414 309.112 366.191 309.116 360.23C309.119 356.662 311.428 354.308 314.928 354.308C316.139 354.308 317.236 354.576 318.025 355.063ZM385.999 374.242V392.279H375.188C361.883 392.279 362.826 391.821 362.665 398.365L362.558 402.722L353.276 402.823L343.994 402.925V381.281V359.638L345.475 358.872C346.289 358.452 347.26 357.685 347.631 357.168L348.307 356.228L367.153 356.216L385.999 356.204V374.242ZM350.317 364.145C349.436 364.868 349.432 364.912 349.432 373.059C349.432 381.073 349.45 381.264 350.286 382.111L351.141 382.976H365.351H379.562L380.53 382.055L381.498 381.134V373.278C381.498 365.904 381.45 365.359 380.721 364.42L379.944 363.419H365.573C351.983 363.419 351.154 363.459 350.317 364.145ZM362.371 373.307V377.118L358.902 377.009L355.433 376.9L355.325 373.198L355.218 369.495H358.794H362.371V373.307ZM375.497 373.293V377.09H371.934H368.372V373.293V369.495H371.934H375.497V373.293ZM319.991 394.759V402.934L315.022 402.828L310.052 402.722L309.951 394.653L309.85 386.583H314.92H319.991V394.759ZM391.999 400.633V402.912H380.373H368.747V400.633V398.355H380.373H391.999V400.633ZM391.999 411.457V413.927L339.962 413.831L287.925 413.734L287.813 411.361L287.702 408.988H339.85H391.999V411.457Z" fill="#FFDF2D"/>
</g>
<defs>
<clipPath id="clip0_68_387">
<rect width="170" height="200" fill="white" transform="translate(224 236)"/>
</clipPath>
</defs>
</svg>
