<svg width="614" height="614" viewBox="0 0 614 614" fill="none" xmlns="http://www.w3.org/2000/svg">
<path fill-rule="evenodd" clip-rule="evenodd" d="M276.097 263.226C274.848 263.704 273.617 264.879 273.043 266.145C272.483 267.378 272.417 268.476 272.41 276.686C272.402 286.662 272.5 287.3 274.297 288.982C274.825 289.477 275.919 290.05 276.727 290.257L278.197 290.632L278.024 292.537C277.766 295.381 276.746 297.021 272.584 301.279C266.136 307.877 266.022 308.236 266.022 321.967C266.022 330.925 266.095 332.358 266.647 334.13L267.272 336.138L265.081 336.679C263.876 336.977 262.196 337.624 261.349 338.119C259.51 339.191 248.102 350.343 246.03 353.093C243.495 356.459 243.119 357.927 242.875 365.435C242.668 371.818 242.638 372.029 241.703 373.731C241.176 374.691 240.4 375.802 239.978 376.198L239.211 376.918L238.209 376.177C236.857 375.177 234.54 374.943 233.041 375.654C232.397 375.96 228.838 379.266 225.13 383.002C219.446 388.73 218.354 389.99 218.155 391.05C217.683 393.565 218.164 394.586 221.342 397.816C223.801 400.316 224.467 400.816 225.337 400.816C226.795 400.816 227.734 399.866 227.734 398.392C227.734 397.352 227.41 396.866 225.304 394.746L222.874 392.299L228.999 386.173L235.124 380.048L251.999 396.925L268.875 413.803L262.749 419.929L256.623 426.056L245.106 414.556C235.026 404.49 233.461 403.055 232.567 403.055C231.27 403.055 230.085 404.269 230.085 405.598C230.085 406.449 231.722 408.217 241.924 418.389C248.436 424.88 254.093 430.359 254.496 430.563C255.522 431.082 257.821 431.026 258.902 430.456C259.4 430.193 262.857 426.905 266.583 423.15C272.348 417.34 273.392 416.133 273.591 415.051C273.888 413.44 273.601 411.991 272.746 410.791L272.076 409.85L273.608 408.438C275.513 406.682 277.255 405.908 280.372 405.435C285.437 404.666 285.987 404.312 293.226 397.165C297.803 392.646 300.295 390.44 301.501 389.837C303.433 388.871 305.445 386.73 305.999 385.052C306.332 384.044 306.444 383.971 307.207 384.261C308.454 384.736 311.894 384.648 313.183 384.11C314.89 383.396 317.099 381.235 317.849 379.546C318.347 378.422 318.559 377.036 318.68 374.113L318.841 370.188L319.658 370.499C320.9 370.971 323.49 370.87 325.216 370.282C327.343 369.557 329.617 367.085 330.313 364.744C330.737 363.314 330.842 361.168 330.842 353.887V344.812L334.986 348.909C338.7 352.581 339.252 353.007 340.308 353.007C341.752 353.007 342.709 352.059 342.709 350.629C342.709 349.777 342.118 349.009 339.21 346.081C335.93 342.778 335.751 342.529 336.345 342.086C337.821 340.985 341.29 341.068 343.589 342.26C345.399 343.198 358.564 356.597 359.264 358.213C359.718 359.26 359.896 361.004 360.069 366.107C360.34 374.077 360.846 375.748 364.061 379.313L365.218 380.595L352.329 393.49L339.439 406.384L337.662 404.703C335.381 402.545 332.315 401.119 328.7 400.533C327.131 400.279 325.346 399.819 324.734 399.511C324.122 399.203 321.343 396.7 318.559 393.949C313.92 389.366 313.395 388.947 312.286 388.947C310.9 388.947 309.683 390.153 309.683 391.527C309.683 392.449 314.081 397.193 318.69 401.241C321.786 403.962 323.644 404.838 327.575 405.435C330.692 405.908 332.434 406.682 334.339 408.438L335.871 409.85L335.201 410.791C334.346 411.991 334.059 413.44 334.356 415.051C334.555 416.133 335.599 417.34 341.364 423.15C345.09 426.905 348.547 430.193 349.045 430.456C350.211 431.07 352.452 431.069 353.613 430.453C354.112 430.189 362.406 422.065 372.045 412.399C391.049 393.344 390.374 394.155 389.792 391.05C389.593 389.99 388.501 388.73 382.816 383.002C379.109 379.266 375.55 375.96 374.906 375.654C373.407 374.943 371.09 375.177 369.737 376.177L368.736 376.918L367.969 376.198C367.547 375.802 366.773 374.691 366.249 373.731C365.443 372.255 365.274 371.501 365.157 368.861L365.018 365.737L365.889 365.956C366.579 366.129 366.974 365.963 367.778 365.159C368.972 363.965 369.052 363.166 368.097 361.953C367.589 361.306 367.094 361.068 366.257 361.068C365.277 361.068 365.085 360.935 364.926 360.144C364.45 357.788 363.683 355.709 362.724 354.175C362.149 353.256 358.556 349.39 354.74 345.585C347.16 338.027 345.94 337.166 341.811 336.459C339.135 336 336.268 336.451 333.621 337.746C332.214 338.434 331.722 338.54 331.351 338.232C330.959 337.906 330.858 335.093 330.764 321.826C330.632 303.109 330.787 304.069 327.081 299.075C325.466 296.899 324.796 294.976 324.796 292.51C324.796 290.641 324.843 290.532 325.72 290.326C327.34 289.944 328.827 288.823 329.523 287.459C330.162 286.207 330.193 285.597 330.1 276.264C330.007 266.901 329.967 266.346 329.31 265.467C328.929 264.957 328.2 264.229 327.69 263.848C326.775 263.164 326.442 263.154 301.682 263.094C287.888 263.061 276.374 263.12 276.097 263.226ZM325.054 276.675L324.964 285.324L312.051 285.412C299.337 285.499 299.126 285.511 298.365 286.226C297.098 287.417 297.38 289.222 298.96 290.039C299.731 290.438 301.776 290.53 309.793 290.53H319.676L319.819 293.469C319.983 296.838 320.886 299.202 323.157 302.21C325.829 305.749 325.625 303.196 325.73 334.524C325.798 355.262 325.721 362.809 325.432 363.507C324.494 365.773 321.665 366.511 319.861 364.961L318.919 364.15L318.751 348.704C318.593 334.118 318.548 333.22 317.943 332.552C317.158 331.685 315.208 331.604 314.328 332.401C313.745 332.929 313.713 334.052 313.711 354.318C313.71 367.923 313.584 376.131 313.364 376.924C312.663 379.448 309.712 380.402 307.771 378.732L306.828 377.921L306.66 355.564L306.492 333.207L305.755 332.47C304.789 331.504 303.157 331.505 302.191 332.471L301.454 333.209L301.401 357.635C301.372 371.07 301.334 382.413 301.317 382.843C301.3 383.273 300.845 384.067 300.305 384.607C299.161 385.75 297.239 385.942 295.952 385.041C294.216 383.824 294.234 384.109 294.234 357.604C294.234 334.557 294.195 332.923 293.646 332.427C292.541 331.431 291.393 331.386 290.335 332.295L289.364 333.131L289.196 355.526L289.028 377.921L288.085 378.732C286.719 379.907 284.836 379.839 283.408 378.562L282.311 377.582L282.22 352.965L282.13 328.348L281.406 327.578C280.444 326.554 278.984 326.577 277.929 327.632C277.132 328.428 277.105 328.614 277.105 333.154C277.105 335.98 276.969 337.936 276.763 338.063C275.868 338.617 272.807 335.841 271.758 333.525C271.119 332.113 271.074 331.351 271.07 321.937C271.065 309.524 270.831 310.26 276.707 304.212C278.904 301.95 281.01 299.496 281.385 298.758C282.401 296.763 283.15 293.973 283.15 292.182V290.597L286.202 290.48C289.062 290.37 289.305 290.303 290.065 289.42C291.056 288.267 291.085 287.529 290.185 286.385L289.495 285.507L283.552 285.416L277.609 285.324L277.519 276.675L277.429 268.025H301.287H325.144L325.054 276.675ZM283.975 274.896C282.48 276.391 283.152 278.836 285.18 279.281C286.959 279.672 288.8 277.905 288.376 276.215C287.845 274.099 285.48 273.39 283.975 274.896ZM268.112 290.046C267.167 290.707 267.072 292.85 267.953 293.643C269.714 295.231 272.067 294.216 272.067 291.869C272.067 290.401 271.187 289.523 269.716 289.523C269.244 289.523 268.522 289.758 268.112 290.046ZM331.055 290.219C329.298 291.601 330.272 294.561 332.484 294.561C334.871 294.561 335.877 291.864 334.07 290.309C332.943 289.34 332.201 289.318 331.055 290.219ZM259.457 295.722C259.004 296.175 258.633 296.938 258.633 297.416C258.633 298.536 260.032 299.935 261.152 299.935C262.323 299.935 263.671 298.537 263.671 297.322C263.671 296.112 262.432 294.897 261.199 294.897C260.673 294.897 259.93 295.249 259.457 295.722ZM340.352 295.571C338.798 296.197 338.431 298.367 339.68 299.541C340.78 300.574 342.364 300.506 343.244 299.386C344.375 297.949 344.04 296.515 342.367 295.624C341.522 295.173 341.35 295.169 340.352 295.571ZM251.744 302.291C250.808 303.325 250.955 304.929 252.075 305.891C253.105 306.777 254.264 306.722 255.358 305.735C256.163 305.01 256.118 303.13 255.274 302.287C254.384 301.397 252.551 301.399 251.744 302.291ZM348.093 302.672C347.377 303.026 346.627 304.275 346.627 305.112C346.627 305.356 346.94 305.953 347.323 306.44C348.705 308.197 351.665 307.223 351.665 305.011C351.665 303.166 349.699 301.878 348.093 302.672ZM245.257 310.118C243.311 312.19 245.648 315.206 248.183 313.895C249.779 313.069 250.063 311.27 248.788 310.071C247.755 309.101 246.193 309.121 245.257 310.118ZM354.074 311.461C353.673 311.889 353.344 312.652 353.344 313.156C353.344 314.323 354.718 315.722 355.863 315.722C356.957 315.722 358.382 314.332 358.382 313.264C358.382 311.014 355.591 309.847 354.074 311.461ZM240.619 318.131C239.904 318.477 239.153 319.723 239.153 320.563C239.153 320.807 239.467 321.404 239.849 321.891C240.722 323 242.519 323.105 243.519 322.104C244.519 321.104 244.415 319.306 243.306 318.434C242.337 317.672 241.712 317.601 240.619 318.131ZM359.453 320.438C358.465 321.359 358.465 323.186 359.453 324.107C361.375 325.897 364.249 323.956 363.378 321.456C362.761 319.688 360.803 319.18 359.453 320.438ZM236.189 327.92C234.276 329.957 236.35 332.978 238.97 331.973C239.269 331.858 239.747 331.313 240.032 330.762C241.328 328.255 238.11 325.875 236.189 327.92ZM364.092 329.732C362.363 330.368 361.819 332.596 363.084 333.861C363.927 334.704 365.807 334.75 366.532 333.945C366.824 333.621 367.165 332.945 367.29 332.442C367.475 331.701 367.325 331.333 366.503 330.51C365.499 329.507 365.077 329.37 364.092 329.732ZM234.223 337.283C233.198 337.779 232.655 339.22 233.077 340.328C233.464 341.347 234.376 341.922 235.604 341.922C237.719 341.922 238.631 338.922 236.925 337.58C235.953 336.816 235.331 336.747 234.223 337.283ZM365.252 340.731C364.799 341.185 364.428 341.947 364.428 342.426C364.428 343.546 365.827 344.945 366.946 344.945C368.066 344.945 369.465 343.546 369.465 342.426C369.465 341.306 368.066 339.907 366.946 339.907C366.468 339.907 365.705 340.278 365.252 340.731ZM271.496 341.948L272.437 342.381L268.837 345.992C265.836 349.003 265.238 349.774 265.238 350.629C265.238 352.059 266.195 353.007 267.639 353.007C268.694 353.007 269.246 352.582 272.946 348.924L277.075 344.841L277.174 361.604L277.273 378.367L278.251 380.132C279.991 383.273 282.646 384.739 286.16 384.498C287.368 384.416 288.597 384.242 288.892 384.113C289.304 383.931 289.561 384.226 290.001 385.378C290.333 386.247 291.219 387.473 292.106 388.291L293.637 389.702L289.149 394.219C286.681 396.704 284.083 399.037 283.375 399.404C282.668 399.772 280.807 400.28 279.241 400.534C275.632 401.118 272.565 402.546 270.284 404.703L268.507 406.384L255.618 393.49L242.728 380.595L243.885 379.313C247.101 375.748 247.607 374.077 247.878 366.107C248.051 361.004 248.229 359.26 248.682 358.213C249.065 357.329 251.64 354.48 256.216 349.875C264.42 341.619 265.108 341.151 268.708 341.391C269.724 341.459 270.979 341.71 271.496 341.948ZM232.985 347.657C231.279 348.999 232.191 351.999 234.305 351.999C236.266 351.999 237.396 350.488 236.772 348.699C236.452 347.78 235.293 346.961 234.313 346.961C234.069 346.961 233.472 347.274 232.985 347.657ZM366.563 350.656C365.715 350.994 364.763 352.253 364.763 353.036C364.763 353.34 365.077 353.986 365.46 354.473C366.842 356.23 369.801 355.256 369.801 353.044C369.801 351.299 368.098 350.043 366.563 350.656ZM233.887 357.437C232.862 357.933 232.319 359.374 232.741 360.482C233.128 361.501 234.04 362.076 235.269 362.076C237.384 362.076 238.295 359.076 236.589 357.734C235.617 356.969 234.996 356.901 233.887 357.437ZM235.459 367.786C234.459 368.786 234.563 370.584 235.672 371.456C236.885 372.411 237.683 372.331 238.877 371.137C239.7 370.314 239.85 369.946 239.665 369.205C239.539 368.702 239.198 368.025 238.907 367.702C238.182 366.897 236.302 366.943 235.459 367.786ZM379.039 386.262L385.079 392.309L368.204 409.186L351.33 426.062L345.201 419.933L339.073 413.804L355.863 397.009C365.098 387.772 372.731 380.214 372.826 380.214C372.921 380.214 375.717 382.936 379.039 386.262ZM372.064 389.367C371.248 389.987 370.776 391.504 371.118 392.404C371.557 393.558 372.415 394.12 373.738 394.12C375.192 394.12 376.182 393.054 376.182 391.488C376.182 389.497 373.626 388.181 372.064 389.367ZM325.863 409.878C324.829 410.978 324.898 412.563 326.017 413.443C327.475 414.59 328.881 414.314 329.705 412.721C331.002 410.213 327.784 407.833 325.863 409.878ZM276.769 411.452C275.769 412.453 275.873 414.25 276.982 415.123C278.128 416.024 278.87 416.002 279.997 415.032C281.804 413.478 280.798 410.781 278.411 410.781C277.877 410.781 277.138 411.083 276.769 411.452ZM256.068 412.181C255.281 412.562 254.603 413.794 254.603 414.842C254.603 415.878 256.09 417.163 257.289 417.163C258.489 417.163 259.976 415.878 259.976 414.842C259.976 413.743 259.285 412.559 258.412 412.161C257.436 411.716 257.02 411.72 256.068 412.181ZM316.634 412.833C315.083 413.735 315.272 416.358 316.942 417.119C318.108 417.65 318.533 417.599 319.545 416.802C321.282 415.436 320.329 412.446 318.163 412.47C317.656 412.476 316.967 412.639 316.634 412.833ZM286.56 414.055C286.178 414.379 285.768 415.055 285.649 415.559C285.476 416.292 285.634 416.675 286.449 417.49C287.643 418.684 288.441 418.764 289.654 417.81C291.411 416.428 290.437 413.468 288.225 413.468C287.692 413.468 286.942 413.732 286.56 414.055ZM307.102 414.47C304.671 415.474 305.576 419.178 308.253 419.178C309.45 419.178 310.691 417.891 310.691 416.651C310.691 415.025 308.695 413.813 307.102 414.47ZM297.026 414.814C294.68 415.759 295.507 419.514 298.062 419.514C300.333 419.514 301.401 416.91 299.79 415.3C298.928 414.437 298.254 414.319 297.026 414.814Z" fill="#FFDF2D"/>
<mask id="path-2-inside-1_68_509" fill="white">
<path d="M510 350C510 376.79 504.723 403.317 494.471 428.067C484.219 452.818 469.193 475.307 450.25 494.25C431.307 513.193 408.818 528.219 384.067 538.471C359.317 548.723 332.79 554 306 554L306 490.386C324.436 490.386 342.691 486.754 359.723 479.699C376.756 472.644 392.232 462.304 405.268 449.268C418.304 436.232 428.644 420.756 435.699 403.723C442.754 386.691 446.386 368.436 446.386 350H510Z"/>
</mask>
<path d="M510 350C510 376.79 504.723 403.317 494.471 428.067C484.219 452.818 469.193 475.307 450.25 494.25C431.307 513.193 408.818 528.219 384.067 538.471C359.317 548.723 332.79 554 306 554L306 490.386C324.436 490.386 342.691 486.754 359.723 479.699C376.756 472.644 392.232 462.304 405.268 449.268C418.304 436.232 428.644 420.756 435.699 403.723C442.754 386.691 446.386 368.436 446.386 350H510Z" stroke="#FFDF2D" stroke-width="4" mask="url(#path-2-inside-1_68_509)"/>
<path d="M302 554C275.21 554 248.683 548.723 223.933 538.471C199.182 528.219 176.693 513.193 157.75 494.25C138.807 475.307 123.781 452.818 113.529 428.067C103.277 403.317 98 376.79 98 350L161.435 350C161.435 368.459 165.071 386.738 172.135 403.792C179.199 420.846 189.553 436.342 202.606 449.394C215.658 462.447 231.154 472.801 248.208 479.865C265.262 486.929 283.541 490.565 302 490.565L302 554Z" fill="#FFDF2D"/>
<mask id="path-4-inside-2_68_509" fill="white">
<path d="M302 142C275.21 142 248.683 147.277 223.933 157.529C199.182 167.781 176.693 182.807 157.75 201.75C138.807 220.693 123.781 243.182 113.529 267.933C103.277 292.683 98 319.21 98 346L160.691 346C160.691 327.443 164.346 309.068 171.447 291.923C178.549 274.779 188.958 259.201 202.079 246.079C215.201 232.958 230.779 222.549 247.923 215.447C265.068 208.346 283.443 204.691 302 204.691L302 142Z"/>
</mask>
<path d="M302 142C275.21 142 248.683 147.277 223.933 157.529C199.182 167.781 176.693 182.807 157.75 201.75C138.807 220.693 123.781 243.182 113.529 267.933C103.277 292.683 98 319.21 98 346L160.691 346C160.691 327.443 164.346 309.068 171.447 291.923C178.549 274.779 188.958 259.201 202.079 246.079C215.201 232.958 230.779 222.549 247.923 215.447C265.068 208.346 283.443 204.691 302 204.691L302 142Z" stroke="#FFDF2D" stroke-width="4" mask="url(#path-4-inside-2_68_509)"/>
<mask id="path-5-inside-3_68_509" fill="white">
<path d="M306 142C332.79 142 359.317 147.277 384.067 157.529C408.818 167.781 431.307 182.807 450.25 201.75C469.193 220.693 484.219 243.182 494.471 267.933C504.723 292.683 510 319.21 510 346L447.309 346C447.309 327.443 443.654 309.068 436.553 291.923C429.451 274.779 419.042 259.201 405.921 246.079C392.799 232.958 377.221 222.549 360.077 215.447C342.932 208.346 324.557 204.691 306 204.691L306 142Z"/>
</mask>
<path d="M306 142C332.79 142 359.317 147.277 384.067 157.529C408.818 167.781 431.307 182.807 450.25 201.75C469.193 220.693 484.219 243.182 494.471 267.933C504.723 292.683 510 319.21 510 346L447.309 346C447.309 327.443 443.654 309.068 436.553 291.923C429.451 274.779 419.042 259.201 405.921 246.079C392.799 232.958 377.221 222.549 360.077 215.447C342.932 208.346 324.557 204.691 306 204.691L306 142Z" stroke="#FFDF2D" stroke-width="4" mask="url(#path-5-inside-3_68_509)"/>
</svg>
