<svg width="614" height="614" viewBox="0 0 614 614" fill="none" xmlns="http://www.w3.org/2000/svg">
<circle cx="318" cy="350" r="201" stroke="#FFDF2D" stroke-width="6" stroke-linecap="square" stroke-linejoin="round"/>
<circle cx="302" cy="350" r="201" stroke="#FFDF2D" stroke-width="6" stroke-linecap="round" stroke-linejoin="round" stroke-dasharray="30 30"/>
<path fill-rule="evenodd" clip-rule="evenodd" d="M244.64 276.963L226 295.651V369.188V442.725H300.194H374.387V418.063V393.401L378.392 390.397C392.37 379.915 403.061 363.831 407.415 346.733C409.283 339.402 410 333.109 410 324.057V317.775H407.115C396.909 317.775 385.821 314.583 376.52 308.968L374.387 307.68V282.978V258.275H318.833H263.28L244.64 276.963ZM368.452 284.973V305.721L366.366 306.16C365.138 306.418 363.192 307.274 361.636 308.24C351.747 314.382 340.396 317.775 329.738 317.775H326.803L327.009 326.421C327.126 331.351 327.46 336.614 327.788 338.668C331.294 360.67 343.434 380.122 361.375 392.482C363.32 393.821 364.763 394.51 366.29 394.826L368.452 395.274V416.024V436.775H300.194H231.935V368.35V299.925H234.903H237.871V305.875V311.825H279.419H320.968V291V270.175H294.258H267.548V267.2V264.225H318H368.452V284.973ZM261.613 281.331V293.975H248.909H236.206L248.815 281.331C255.749 274.377 261.466 268.687 261.518 268.687C261.57 268.687 261.613 274.377 261.613 281.331ZM326.903 273.15V276.125H332.839H338.774V273.15V270.175H332.839H326.903V273.15ZM344.71 273.15V276.125H347.677H350.645V273.15V270.175H347.677H344.71V273.15ZM356.581 273.15V276.125H359.548H362.516V273.15V270.175H359.548H356.581V273.15ZM315.032 291V305.875H279.419H243.806V302.9V299.925H255.677H267.548V288.025V276.125H291.29H315.032V291ZM326.903 285.05V288.025H344.71H362.516V285.05V282.075H344.71H326.903V285.05ZM326.903 296.95V299.925H344.71H362.516V296.95V293.975H344.71H326.903V296.95ZM372.637 313.605C380.446 318.55 389.777 321.879 399.437 323.167C401.676 323.466 403.659 323.714 403.843 323.717C404.329 323.728 403.83 334.042 403.141 338.228C399.956 357.579 389.899 374.264 374.335 386.017C368.885 390.132 368.021 390.122 362.407 385.875C349.087 375.799 339.661 361.849 335.466 346C333.89 340.046 333.216 335.552 332.954 329.237L332.728 323.78L333.989 323.589C334.682 323.485 336.739 323.211 338.559 322.982C346.936 321.924 356.884 318.324 363.968 313.786C365.074 313.078 366.326 312.35 366.751 312.167C368.133 311.572 370.239 312.087 372.637 313.605ZM237.871 320.75V323.725H240.839H243.806V320.75V317.775H240.839H237.871V320.75ZM249.742 320.75V323.725H285.355H320.968V320.75V317.775H285.355H249.742V320.75ZM366.04 319.506C359.777 323.325 350.732 326.787 343.226 328.237C340.879 328.691 338.902 329.104 338.831 329.156C338.522 329.383 339.635 337.673 340.494 341.546C343.409 354.682 349.875 366.215 359.597 375.616C362.836 378.748 367.858 382.853 368.452 382.853C369.045 382.853 374.067 378.748 377.306 375.616C388.645 364.651 395.467 350.966 397.576 334.955C398.422 328.529 398.711 329.156 394.555 328.412C387.127 327.082 378.47 323.891 371.763 320.01C369.991 318.985 368.479 318.147 368.404 318.148C368.328 318.148 367.265 318.759 366.04 319.506ZM371.887 326.851C376.087 329.101 382.757 331.699 387.595 332.969L391.637 334.03L391.528 335.478C391.357 337.751 389.351 345.552 388.105 348.79C384.578 357.96 378.227 367.206 371.447 373.044C369.933 374.348 368.584 375.416 368.45 375.416C368.316 375.416 366.983 374.351 365.487 373.051C358.506 366.981 352.343 358.004 348.758 348.687C347.55 345.546 345.545 337.726 345.375 335.491L345.266 334.055L349.811 332.806C354.865 331.416 362.264 328.483 365.669 326.519C366.894 325.813 368.106 325.23 368.363 325.224C368.619 325.218 370.205 325.949 371.887 326.851ZM237.871 332.65V335.625H279.419H320.968V332.65V329.675H279.419H237.871V332.65ZM374.671 345.937L365.497 355.133L363.715 353.375C362.736 352.407 361.767 351.616 361.562 351.616C361.085 351.616 357.694 355.055 357.694 355.54C357.694 355.741 359.447 357.657 361.591 359.799L365.488 363.693L376.801 352.357C383.022 346.123 388.113 340.847 388.113 340.634C388.113 340.148 384.692 336.741 384.204 336.741C384.007 336.741 379.717 340.879 374.671 345.937ZM237.871 344.55V347.525H273.484H309.097V344.55V341.575H273.484H237.871V344.55ZM315.032 344.55V347.525H318H320.968V344.55V341.575H318H315.032V344.55ZM261.992 366.294C247.728 375.13 241.003 379.505 240.08 380.548C236.914 384.124 237.138 388.83 240.641 392.356C242.826 394.557 245 395.351 247.896 395.007L249.742 394.788V412.806V430.825H285.355H320.968V412.806V394.788L322.814 395.007C325.709 395.351 327.883 394.557 330.069 392.356C332.68 389.728 333.418 386.922 332.396 383.503C331.501 380.508 329.924 379.364 308.432 366.118L287.92 353.475L285.246 353.51L282.573 353.546L261.992 366.294ZM305.9 371.552C316.738 378.222 325.897 384.014 326.254 384.423C327.721 386.104 326.317 389.175 324.082 389.175C323.419 389.175 316.806 385.294 304.436 377.647C294.181 371.306 285.608 366.119 285.386 366.119C285.165 366.119 276.575 371.306 266.297 377.647C254.014 385.225 247.271 389.175 246.62 389.175C244.535 389.175 243.039 386.263 244.27 384.6C245.038 383.562 284.355 359.461 285.311 359.442C285.843 359.432 294.051 364.26 305.9 371.552ZM300.313 382.082L315.032 391.166V408.02V424.875H309.097H303.161V412.975V401.075H285.355H267.548V412.975V424.875H261.613H255.677V408.023V391.17L270.423 382.034C278.534 377.009 285.265 372.921 285.382 372.948C285.499 372.976 292.218 377.086 300.313 382.082ZM282.387 377.761C280.566 378.336 277.461 381.56 276.903 383.454C275.875 386.941 276.6 389.72 279.221 392.348C283.018 396.155 288.257 396.074 291.772 392.154C295.099 388.446 295.099 383.954 291.772 380.245C289.371 377.569 285.903 376.65 282.387 377.761ZM287.412 384.138C289.252 385.982 287.948 389.175 285.355 389.175C283.83 389.175 282.387 387.729 282.387 386.2C282.387 384.671 283.83 383.225 285.355 383.225C286.077 383.225 286.838 383.562 287.412 384.138ZM332.839 404.05V407.025H347.677H362.516V404.05V401.075H347.677H332.839V404.05ZM297.226 415.95V424.875H285.355H273.484V415.95V407.025H285.355H297.226V415.95ZM332.839 415.95V418.925H347.677H362.516V415.95V412.975H347.677H332.839V415.95ZM332.839 427.85V430.825H335.806H338.774V427.85V424.875H335.806H332.839V427.85ZM344.71 427.85V430.825H347.677H350.645V427.85V424.875H347.677H344.71V427.85ZM356.581 427.85V430.825H359.548H362.516V427.85V424.875H359.548H356.581V427.85Z" fill="#FFDF2D"/>
</svg>
