<svg width="614" height="614" viewBox="0 0 614 614" fill="none" xmlns="http://www.w3.org/2000/svg">
<mask id="path-1-inside-1_68_541" fill="white">
<path d="M302 146C261.653 146 222.211 157.964 188.664 180.38C155.116 202.796 128.969 234.656 113.529 271.933C98.0883 309.209 94.0484 350.226 101.92 389.798C109.791 429.371 129.22 465.72 157.75 494.25C186.28 522.78 222.629 542.209 262.202 550.08C301.774 557.952 342.791 553.912 380.067 538.471C417.344 523.031 449.204 496.884 471.62 463.336C494.036 429.789 506 390.347 506 350H302V146Z"/>
</mask>
<path d="M302 146C261.653 146 222.211 157.964 188.664 180.38C155.116 202.796 128.969 234.656 113.529 271.933C98.0883 309.209 94.0484 350.226 101.92 389.798C109.791 429.371 129.22 465.72 157.75 494.25C186.28 522.78 222.629 542.209 262.202 550.08C301.774 557.952 342.791 553.912 380.067 538.471C417.344 523.031 449.204 496.884 471.62 463.336C494.036 429.789 506 390.347 506 350H302V146Z" fill="#FFDF2D" stroke="#FFDF2D" stroke-width="12" stroke-linecap="square" stroke-linejoin="round" mask="url(#path-1-inside-1_68_541)"/>
<path fill-rule="evenodd" clip-rule="evenodd" d="M404.962 155.379C396.218 156.815 387.996 161.689 382.77 168.537C380.751 171.181 377.77 177.167 376.881 180.36C375.93 183.773 375.724 192.163 376.497 195.983C378.871 207.717 387.634 217.58 399.139 221.465C407.233 224.198 415.032 224.008 423.2 220.881L426.117 219.764L433.919 221.965C442.146 224.286 442.711 224.333 444.388 222.826C445.675 221.67 445.519 220.257 443.244 212.394L441.051 204.819L442.287 201.776C445.458 193.97 445.445 184.853 442.252 176.482C439.173 168.409 431.753 160.939 423.49 157.594C417.774 155.281 410.708 154.436 404.962 155.379ZM324.16 162.543L322.954 163.613L322.848 177.01C322.731 191.912 322.8 192.441 325.016 193.579C326.004 194.086 326.455 194.122 327.59 193.784C330.191 193.01 330.157 193.225 330.157 177.594V163.617L329.077 162.545C327.603 161.082 325.809 161.081 324.16 162.543ZM417.092 163.148C428.787 166.12 437.291 177.064 437.282 189.129C437.279 193.011 436.288 197.596 434.837 200.438C433.141 203.762 433.14 203.905 434.758 209.542C435.573 212.384 436.18 214.769 436.106 214.843C436.032 214.916 433.658 214.312 430.831 213.501C428.003 212.689 425.348 212.104 424.931 212.201C424.513 212.298 422.814 212.977 421.155 213.709C410.786 218.287 399.176 216.089 391.114 208.022C387.899 204.804 386.245 202.218 384.72 198.024C383.802 195.5 383.602 194.308 383.445 190.432C383.226 185.026 383.945 181.458 386.14 177.047C391.663 165.95 404.838 160.034 417.092 163.148ZM408.249 169.321C407.373 170.192 406.993 170.905 406.993 171.682C406.993 172.598 406.733 172.94 405.521 173.617C404.711 174.069 403.614 175.061 403.083 175.821C399.803 180.52 400.661 185.705 405.2 188.617C406.388 189.38 408.598 190.452 410.113 191C413.616 192.269 414.256 192.922 413.799 194.762C413.149 197.372 409.701 198.096 406.368 196.323C404.838 195.508 403.272 195.372 402.171 195.958C401.257 196.443 400.344 198.199 400.344 199.469C400.344 200.844 402.759 203.044 405.122 203.824C406.527 204.287 406.993 204.621 406.993 205.163C406.993 206.198 407.988 207.963 408.82 208.405C411.154 209.646 413.913 208.204 414.271 205.556C414.44 204.304 414.699 203.871 415.535 203.441C417.37 202.499 419.199 200.658 420.214 198.73C421.023 197.193 421.197 196.378 421.198 194.113C421.199 189.352 419.07 186.59 413.853 184.588C408.516 182.539 407.347 181.367 409.292 180.014C410.456 179.205 411.722 179.304 413.721 180.36C414.675 180.865 415.804 181.277 416.23 181.277C418.194 181.277 419.923 179.48 419.923 177.437C419.923 176.205 418.289 174.429 416.18 173.368C414.728 172.637 414.381 172.281 414.381 171.516C414.381 170.927 413.906 170.096 413.125 169.321C411.421 167.63 409.953 167.63 408.249 169.321ZM324.06 204.167C322.895 205.323 322.574 206.697 323.148 208.071C323.767 209.557 324.856 210.25 326.573 210.25C328.528 210.25 330.157 208.665 330.157 206.766C330.157 203.766 326.174 202.068 324.06 204.167ZM324.16 220.855L322.954 221.925L322.857 267.981L322.76 314.037H317.983C313.56 314.037 313.134 314.099 312.239 314.863C311.595 315.413 311.204 316.193 311.068 317.195C310.891 318.503 311.012 318.864 311.984 319.945L313.103 321.189L317.936 321.317L322.769 321.446V325.645C322.769 330.398 323.173 331.627 325.051 332.592C326.003 333.08 326.462 333.114 327.59 332.779C329.829 332.113 330.157 331.243 330.157 325.969V321.372H413.285C503.631 321.372 498.149 321.499 499.548 319.379C500.337 318.183 500.06 316.051 498.977 314.976L498.216 314.221L414.279 314.037L330.342 313.854L330.235 310.43L330.129 307.005L342.755 289.45L355.382 271.894L364.374 284.439C369.319 291.339 373.891 297.355 374.534 297.809C377.076 299.604 378.18 298.867 383.035 292.143C385.263 289.056 387.144 286.532 387.216 286.532C387.287 286.532 390.369 290.74 394.065 295.884C397.76 301.029 401.206 305.567 401.722 305.97C402.741 306.766 404.412 306.923 405.531 306.327C405.919 306.121 415.994 292.382 427.92 275.796C439.845 259.21 449.889 245.269 450.239 244.815C450.871 243.995 450.954 244.099 461.809 259.187C467.823 267.546 473.114 274.643 473.567 274.957C474.622 275.691 476.416 275.69 477.475 274.953C477.931 274.637 481.209 270.332 484.761 265.387C491.454 256.068 491.756 255.467 490.797 253.377C490.405 252.522 488.505 251.325 487.542 251.325C486.161 251.325 484.65 252.919 480.341 258.922C477.766 262.509 475.597 265.444 475.521 265.444C475.445 265.444 470.457 258.595 464.436 250.224C458.415 241.854 453.126 234.804 452.683 234.559C451.391 233.846 449.618 233.999 448.579 234.913C448.063 235.367 437.771 249.47 425.707 266.254L403.772 296.769L396.682 286.905C390.789 278.706 389.389 276.974 388.389 276.646C386.031 275.874 385.207 276.529 380.712 282.755C376.77 288.215 376.585 288.411 375.969 287.76C375.616 287.387 371.393 281.598 366.583 274.894C361.774 268.191 357.522 262.539 357.136 262.333C356.225 261.849 354.798 261.858 353.701 262.354C353.195 262.583 348.13 269.291 341.586 278.399L330.342 294.05L330.153 257.743C330.048 237.774 329.924 221.392 329.876 221.338C329.827 221.285 329.248 220.914 328.587 220.514C326.898 219.492 325.583 219.593 324.16 220.855ZM338.385 233.914C337.229 235.062 337.107 235.361 337.301 236.573C337.441 237.448 337.925 238.301 338.646 238.947L339.773 239.956H346.989C352.512 239.956 354.444 239.833 355.223 239.433C357.681 238.171 357.681 234.406 355.223 233.143C354.443 232.743 352.506 232.621 346.946 232.621H339.688L338.385 233.914ZM365.721 233.914C364.565 235.062 364.443 235.361 364.637 236.573C364.777 237.448 365.261 238.301 365.982 238.947L367.109 239.956H374.325C382.183 239.956 383.193 239.746 384.018 237.949C384.882 236.067 384.259 234.016 382.559 233.143C381.779 232.743 379.842 232.621 374.283 232.621H367.024L365.721 233.914ZM393.057 233.914C391.901 235.062 391.779 235.361 391.973 236.573C392.113 237.448 392.597 238.301 393.318 238.947L394.445 239.956H401.661C409.519 239.956 410.529 239.746 411.354 237.949C412.218 236.067 411.595 234.016 409.895 233.143C409.115 232.743 407.178 232.621 401.619 232.621H394.36L393.057 233.914ZM420.393 233.914C419.237 235.062 419.115 235.361 419.309 236.573C419.449 237.448 419.933 238.301 420.654 238.947L421.781 239.956H428.407C435.609 239.956 436.624 239.745 437.497 238.069C438.486 236.17 437.8 233.873 436.002 233.059C435.365 232.771 432.748 232.621 428.365 232.621H421.696L420.393 233.914ZM448.609 259.075C447.208 259.884 446.889 261.607 446.889 268.378C446.889 275.781 447.2 277.07 449.185 277.893C450.814 278.569 452.246 278.237 453.358 276.925C454.272 275.846 454.277 275.797 454.277 268.322V260.803L453.197 259.731C452.373 258.913 451.783 258.662 450.704 258.67C449.926 258.677 448.984 258.859 448.609 259.075ZM448.609 286.214C447.199 287.028 446.889 288.736 446.889 295.707C446.889 303.137 447.152 304.189 449.223 305.048C450.816 305.709 452.254 305.366 453.358 304.064C454.272 302.985 454.277 302.936 454.277 295.46V287.942L453.197 286.87C452.373 286.052 451.783 285.801 450.704 285.809C449.926 285.816 448.984 285.997 448.609 286.214Z" fill="#FFDF2D"/>
<path d="M173.229 328.867V333.637C173.229 336.201 173.028 338.363 172.627 340.125C172.24 341.887 171.682 343.305 170.951 344.379C170.221 345.453 169.34 346.234 168.309 346.721C167.292 347.193 166.146 347.43 164.871 347.43C163.868 347.43 162.93 347.279 162.057 346.979C161.197 346.678 160.424 346.198 159.736 345.539C159.049 344.866 158.462 343.992 157.975 342.918C157.488 341.844 157.115 340.54 156.857 339.008C156.6 337.475 156.471 335.685 156.471 333.637V328.867C156.471 326.303 156.671 324.155 157.072 322.422C157.473 320.689 158.039 319.299 158.77 318.254C159.514 317.194 160.395 316.435 161.412 315.977C162.443 315.518 163.589 315.289 164.85 315.289C165.867 315.289 166.805 315.439 167.664 315.74C168.538 316.027 169.311 316.492 169.984 317.137C170.672 317.767 171.259 318.612 171.746 319.672C172.233 320.717 172.598 321.999 172.842 323.518C173.1 325.036 173.229 326.819 173.229 328.867ZM169.447 334.281V328.201C169.447 326.798 169.383 325.566 169.254 324.506C169.125 323.432 168.939 322.515 168.695 321.756C168.452 320.997 168.137 320.381 167.75 319.908C167.378 319.436 166.948 319.092 166.461 318.877C165.974 318.648 165.437 318.533 164.85 318.533C164.119 318.533 163.467 318.712 162.895 319.07C162.336 319.414 161.856 319.965 161.455 320.725C161.068 321.484 160.775 322.479 160.574 323.711C160.374 324.943 160.273 326.439 160.273 328.201V334.281C160.273 335.685 160.338 336.924 160.467 337.998C160.61 339.072 160.803 340.003 161.047 340.791C161.305 341.564 161.62 342.202 161.992 342.703C162.365 343.204 162.794 343.577 163.281 343.82C163.768 344.049 164.298 344.164 164.871 344.164C165.63 344.164 166.289 343.978 166.848 343.605C167.421 343.233 167.9 342.653 168.287 341.865C168.674 341.063 168.96 340.039 169.146 338.793C169.347 337.533 169.447 336.029 169.447 334.281ZM197.611 328.867V333.637C197.611 336.201 197.41 338.363 197.009 340.125C196.622 341.887 196.064 343.305 195.333 344.379C194.603 345.453 193.722 346.234 192.691 346.721C191.674 347.193 190.528 347.43 189.253 347.43C188.251 347.43 187.313 347.279 186.439 346.979C185.579 346.678 184.806 346.198 184.119 345.539C183.431 344.866 182.844 343.992 182.357 342.918C181.87 341.844 181.497 340.54 181.24 339.008C180.982 337.475 180.853 335.685 180.853 333.637V328.867C180.853 326.303 181.053 324.155 181.454 322.422C181.855 320.689 182.421 319.299 183.152 318.254C183.897 317.194 184.777 316.435 185.794 315.977C186.826 315.518 187.971 315.289 189.232 315.289C190.249 315.289 191.187 315.439 192.046 315.74C192.92 316.027 193.693 316.492 194.367 317.137C195.054 317.767 195.641 318.612 196.128 319.672C196.615 320.717 196.98 321.999 197.224 323.518C197.482 325.036 197.611 326.819 197.611 328.867ZM193.829 334.281V328.201C193.829 326.798 193.765 325.566 193.636 324.506C193.507 323.432 193.321 322.515 193.077 321.756C192.834 320.997 192.519 320.381 192.132 319.908C191.76 319.436 191.33 319.092 190.843 318.877C190.356 318.648 189.819 318.533 189.232 318.533C188.501 318.533 187.85 318.712 187.277 319.07C186.718 319.414 186.238 319.965 185.837 320.725C185.451 321.484 185.157 322.479 184.956 323.711C184.756 324.943 184.656 326.439 184.656 328.201V334.281C184.656 335.685 184.72 336.924 184.849 337.998C184.992 339.072 185.186 340.003 185.429 340.791C185.687 341.564 186.002 342.202 186.374 342.703C186.747 343.204 187.176 343.577 187.663 343.82C188.15 344.049 188.68 344.164 189.253 344.164C190.012 344.164 190.671 343.978 191.23 343.605C191.803 343.233 192.283 342.653 192.669 341.865C193.056 341.063 193.342 340.039 193.529 338.793C193.729 337.533 193.829 336.029 193.829 334.281ZM221.993 328.867V333.637C221.993 336.201 221.792 338.363 221.391 340.125C221.005 341.887 220.446 343.305 219.716 344.379C218.985 345.453 218.104 346.234 217.073 346.721C216.056 347.193 214.91 347.43 213.635 347.43C212.633 347.43 211.695 347.279 210.821 346.979C209.962 346.678 209.188 346.198 208.501 345.539C207.813 344.866 207.226 343.992 206.739 342.918C206.252 341.844 205.88 340.54 205.622 339.008C205.364 337.475 205.235 335.685 205.235 333.637V328.867C205.235 326.303 205.436 324.155 205.837 322.422C206.238 320.689 206.803 319.299 207.534 318.254C208.279 317.194 209.16 316.435 210.176 315.977C211.208 315.518 212.354 315.289 213.614 315.289C214.631 315.289 215.569 315.439 216.428 315.74C217.302 316.027 218.076 316.492 218.749 317.137C219.436 317.767 220.023 318.612 220.51 319.672C220.997 320.717 221.363 321.999 221.606 323.518C221.864 325.036 221.993 326.819 221.993 328.867ZM218.212 334.281V328.201C218.212 326.798 218.147 325.566 218.018 324.506C217.889 323.432 217.703 322.515 217.46 321.756C217.216 320.997 216.901 320.381 216.514 319.908C216.142 319.436 215.712 319.092 215.225 318.877C214.738 318.648 214.201 318.533 213.614 318.533C212.884 318.533 212.232 318.712 211.659 319.07C211.1 319.414 210.62 319.965 210.219 320.725C209.833 321.484 209.539 322.479 209.339 323.711C209.138 324.943 209.038 326.439 209.038 328.201V334.281C209.038 335.685 209.102 336.924 209.231 337.998C209.374 339.072 209.568 340.003 209.811 340.791C210.069 341.564 210.384 342.202 210.757 342.703C211.129 343.204 211.559 343.577 212.046 343.82C212.533 344.049 213.063 344.164 213.635 344.164C214.395 344.164 215.053 343.978 215.612 343.605C216.185 343.233 216.665 342.653 217.051 341.865C217.438 341.063 217.725 340.039 217.911 338.793C218.111 337.533 218.212 336.029 218.212 334.281ZM229.445 323.389V321.734C229.445 320.546 229.66 319.464 230.09 318.49C230.534 317.516 231.164 316.736 231.981 316.148C232.797 315.561 233.771 315.268 234.902 315.268C236.063 315.268 237.051 315.561 237.867 316.148C238.698 316.736 239.328 317.516 239.758 318.49C240.188 319.464 240.402 320.546 240.402 321.734V323.389C240.402 324.549 240.188 325.616 239.758 326.59C239.328 327.564 238.705 328.344 237.889 328.932C237.072 329.519 236.091 329.812 234.945 329.812C233.8 329.812 232.811 329.519 231.981 328.932C231.164 328.344 230.534 327.564 230.09 326.59C229.66 325.616 229.445 324.549 229.445 323.389ZM232.238 321.734V323.389C232.238 324.048 232.331 324.671 232.518 325.258C232.718 325.845 233.019 326.325 233.42 326.697C233.821 327.055 234.33 327.234 234.945 327.234C235.547 327.234 236.041 327.055 236.428 326.697C236.829 326.325 237.122 325.845 237.309 325.258C237.509 324.671 237.609 324.048 237.609 323.389V321.734C237.609 321.061 237.509 320.431 237.309 319.844C237.108 319.242 236.807 318.762 236.406 318.404C236.02 318.032 235.518 317.846 234.902 317.846C234.301 317.846 233.8 318.032 233.399 318.404C233.012 318.762 232.718 319.242 232.518 319.844C232.331 320.431 232.238 321.061 232.238 321.734ZM242.078 341.006V339.33C242.078 338.156 242.293 337.081 242.723 336.107C243.167 335.133 243.797 334.353 244.613 333.766C245.444 333.178 246.425 332.885 247.557 332.885C248.703 332.885 249.684 333.178 250.5 333.766C251.316 334.353 251.94 335.133 252.369 336.107C252.813 337.081 253.035 338.156 253.035 339.33V341.006C253.035 342.18 252.813 343.255 252.369 344.229C251.94 345.202 251.316 345.983 250.5 346.57C249.698 347.158 248.724 347.451 247.578 347.451C246.432 347.451 245.444 347.158 244.613 346.57C243.797 345.983 243.167 345.202 242.723 344.229C242.293 343.255 242.078 342.18 242.078 341.006ZM244.871 339.33V341.006C244.871 341.665 244.971 342.295 245.172 342.896C245.372 343.484 245.673 343.964 246.074 344.336C246.475 344.694 246.977 344.873 247.578 344.873C248.18 344.873 248.674 344.694 249.061 344.336C249.462 343.964 249.755 343.484 249.941 342.896C250.142 342.309 250.242 341.679 250.242 341.006V339.33C250.242 338.657 250.142 338.027 249.941 337.439C249.741 336.852 249.44 336.38 249.039 336.021C248.652 335.649 248.158 335.463 247.557 335.463C246.955 335.463 246.454 335.649 246.053 336.021C245.666 336.38 245.372 336.852 245.172 337.439C244.971 338.027 244.871 338.657 244.871 339.33ZM248.566 320.166L235.74 344.615L233.635 343.197L246.482 318.748L248.566 320.166Z" fill="#333740"/>
</svg>
