<svg width="614" height="614" viewBox="0 0 614 614" fill="none" xmlns="http://www.w3.org/2000/svg">
<path d="M305 142C264.257 142 224.429 154.082 190.553 176.717C156.676 199.353 130.272 231.526 114.681 269.167C99.0892 306.809 95.0097 348.229 102.958 388.189C110.907 428.149 130.526 464.854 159.336 493.664C188.146 522.474 224.851 542.093 264.811 550.042C304.771 557.99 346.191 553.911 383.833 538.319C421.474 522.728 453.647 496.324 476.283 462.447C498.918 428.571 511 388.743 511 348L502.76 348C502.76 387.113 491.162 425.348 469.431 457.87C447.701 490.391 416.815 515.738 380.679 530.706C344.544 545.674 304.781 549.591 266.419 541.96C228.057 534.329 192.82 515.495 165.163 487.837C137.505 460.18 118.671 424.943 111.04 386.581C103.409 348.219 107.326 308.456 122.294 272.321C137.262 236.185 162.609 205.299 195.13 183.569C227.652 161.838 265.887 150.24 305 150.24L305 142Z" fill="#FFDF2D"/>
<path d="M308.5 503C339.057 503 368.928 493.939 394.336 476.962C419.743 459.985 439.546 435.856 451.239 407.625C462.933 379.393 465.993 348.329 460.031 318.359C454.07 288.388 439.355 260.859 417.748 239.252C396.141 217.645 368.612 202.93 338.641 196.969C308.671 191.007 277.607 194.067 249.375 205.761C221.144 217.454 197.015 237.257 180.038 262.664C163.061 288.072 154 317.943 154 348.5L160.18 348.5C160.18 319.165 168.879 290.489 185.176 266.098C201.474 241.707 224.638 222.696 251.74 211.47C278.842 200.244 308.665 197.307 337.436 203.03C366.207 208.753 392.635 222.879 413.378 243.622C434.121 264.365 448.247 290.793 453.97 319.564C459.693 348.335 456.756 378.158 445.53 405.26C434.304 432.362 415.293 455.526 390.902 471.824C366.511 488.121 337.835 496.82 308.5 496.82L308.5 503Z" fill="#FFDF2D"/>
<path fill-rule="evenodd" clip-rule="evenodd" d="M243.813 259.713C242.961 260.385 242.906 260.621 242.812 263.972L242.714 267.52L236.965 267.694C231.558 267.858 231.142 267.919 229.961 268.731C229.271 269.206 228.347 270.223 227.908 270.992L227.109 272.388L227.019 351.618C226.958 406.162 227.043 431.27 227.294 432.204C227.494 432.95 228.127 434.096 228.7 434.75C230.864 437.221 226.138 437.056 291.663 436.95L350.67 436.855L352.002 435.791C352.735 435.206 353.687 434.036 354.118 433.191L354.901 431.653L354.811 351.822L354.722 271.99L353.791 270.58C352.188 268.151 350.727 267.694 344.556 267.694H339.29V264.761C339.29 263.148 339.128 261.401 338.93 260.878C338.208 258.974 336.569 258.487 335.014 259.713C334.163 260.385 334.107 260.621 334.014 263.972L333.915 267.52L328.974 267.617L324.032 267.713V264.557C324.032 262.467 323.861 261.069 323.525 260.417C322.701 258.82 321.23 258.55 319.744 259.722C318.862 260.418 318.831 260.566 318.831 264.069V267.694H313.834H308.837L308.719 264.012C308.611 260.635 308.533 260.275 307.782 259.666C306.669 258.762 305.445 258.832 304.424 259.855C303.633 260.648 303.573 260.956 303.573 264.202V267.694H298.544H293.516V264.202C293.516 260.956 293.456 260.648 292.665 259.855C291.58 258.767 290.251 258.767 289.166 259.855C288.375 260.648 288.315 260.956 288.315 264.202V267.694H283.286H278.258V264.069C278.258 260.566 278.227 260.418 277.344 259.722C275.859 258.55 274.387 258.82 273.564 260.417C273.228 261.069 273.057 262.467 273.057 264.557V267.713L268.115 267.617L263.174 267.52L263.075 263.972C262.982 260.621 262.926 260.385 262.075 259.713C260.52 258.487 258.881 258.974 258.159 260.878C257.961 261.401 257.799 263.148 257.799 264.761V267.694H252.944H248.089V264.761C248.089 263.148 247.927 261.401 247.729 260.878C247.007 258.974 245.368 258.487 243.813 259.713ZM372.657 269.435C370.704 269.847 369.255 270.92 368.411 272.577C367.736 273.906 367.726 274.87 367.726 341.687V409.448L372.232 421.587C377.021 434.489 377.449 435.29 379.553 435.29C381.448 435.29 382.519 434.43 383.334 432.252C383.748 431.15 385.866 425.455 388.043 419.596L392 408.945L391.998 342.057C391.997 297.12 391.879 274.746 391.638 273.877C391.202 272.305 389.866 270.65 388.404 269.875C387.524 269.408 386.073 269.282 380.73 269.21C377.106 269.161 373.473 269.262 372.657 269.435ZM242.887 276.387C242.887 280.385 243.343 281.255 245.434 281.255C247.394 281.255 247.871 280.356 248.031 276.363L248.17 272.91H252.944H257.718L257.856 276.363C258.016 280.356 258.493 281.255 260.453 281.255C262.545 281.255 263 280.385 263 276.387V272.91H267.996H272.992L273.111 276.351C273.249 280.338 273.735 281.255 275.711 281.255C277.803 281.255 278.258 280.385 278.258 276.387V272.91H283.286H288.315V276.166C288.315 278.934 288.422 279.56 289.033 280.339C289.962 281.522 291.784 281.597 292.809 280.494C293.421 279.835 293.516 279.274 293.516 276.321V272.91H298.544H303.573V276.321C303.573 279.274 303.668 279.835 304.28 280.494C305.305 281.597 307.127 281.522 308.055 280.339C308.666 279.56 308.774 278.934 308.774 276.166V272.91H313.802H318.831V276.387C318.831 280.385 319.286 281.255 321.378 281.255C323.354 281.255 323.84 280.338 323.978 276.351L324.097 272.91H329.093H334.089V276.387C334.089 280.385 334.544 281.255 336.636 281.255C338.596 281.255 339.073 280.356 339.233 276.363L339.371 272.91H344.116C347.345 272.91 348.994 273.043 349.277 273.327C349.883 273.935 349.883 430.788 349.277 431.395C348.672 432.002 233.159 432.002 232.553 431.395C231.948 430.788 231.948 273.935 232.553 273.327C232.838 273.042 234.534 272.91 237.928 272.91H242.887V276.387ZM386.63 275.431C386.735 275.861 386.777 279.89 386.723 284.384L386.625 292.555L379.776 292.65L372.927 292.744V283.928C372.927 279.079 373.031 275.008 373.159 274.88C373.286 274.753 376.326 274.648 379.914 274.648C386.392 274.648 386.44 274.654 386.63 275.431ZM256.857 297.145C256.463 297.489 254.248 300.314 251.934 303.421C249.62 306.529 247.659 309.072 247.578 309.072C247.497 309.072 246.322 307.742 244.968 306.116C242.761 303.467 242.383 303.161 241.323 303.161C240.553 303.161 239.894 303.426 239.433 303.922C238.097 305.36 238.468 306.297 242.234 310.984C244.164 313.385 246.026 315.501 246.373 315.687C247.534 316.311 248.622 316.052 249.704 314.896C251.453 313.027 260.652 300.625 261.046 299.604C261.864 297.486 258.633 295.59 256.857 297.145ZM386.798 351.359V404.772L386.018 404.552C383.312 403.788 379.626 403.543 376.865 403.944C375.276 404.174 373.74 404.453 373.451 404.564C372.985 404.744 372.927 398.869 372.927 351.355V297.945H379.863H386.798V351.359ZM280.261 299.465C278.773 300.599 278.935 303.072 280.546 303.808C281.03 304.029 283.142 304.204 285.337 304.204C288.782 304.204 289.373 304.116 290.175 303.483C290.838 302.96 291.089 302.442 291.089 301.596C291.089 300.75 290.838 300.231 290.175 299.709C289.363 299.068 288.795 298.989 285.06 298.999C282.149 299.007 280.676 299.15 280.261 299.465ZM299.181 299.502C298.779 299.784 298.351 300.411 298.23 300.895C297.976 301.908 298.754 303.662 299.6 303.988C300.68 304.403 338.154 304.233 339.083 303.808C340.261 303.27 340.722 301.844 340.156 300.493C339.913 299.914 339.45 299.338 339.127 299.214C338.804 299.09 329.849 298.988 319.226 298.988C302.755 298.988 299.805 299.064 299.181 299.502ZM280.266 309.893C278.9 310.934 278.898 313.119 280.261 314.158C281.143 314.829 338.487 314.829 339.368 314.158C340.731 313.119 340.729 310.934 339.364 309.893C338.49 309.228 281.139 309.228 280.266 309.893ZM257.232 328.354C256.836 328.632 254.507 331.546 252.057 334.829L247.602 340.798L246.198 339.106C242.949 335.19 242.371 334.691 241.125 334.727C240.361 334.748 239.73 335.027 239.336 335.515C238.121 337.019 238.507 337.954 242.218 342.51C245.983 347.134 247.167 348.042 248.584 347.394C249.349 347.045 260.662 332.402 261.148 331.132C261.458 330.323 260.612 328.673 259.666 328.241C258.536 327.725 258.099 327.745 257.232 328.354ZM280.847 330.61C279.09 331.331 278.616 333.755 280.01 334.886C280.714 335.459 282.614 335.497 309.815 335.497C337.532 335.497 338.903 335.468 339.657 334.856C340.699 334.01 340.713 332.25 339.685 331.219L338.925 330.456L310.238 330.388C294.461 330.35 281.235 330.45 280.847 330.61ZM280.444 341.129C278.857 341.898 278.898 345.086 280.502 345.703C281.253 345.992 338.351 346.001 339.101 345.713C339.41 345.594 339.888 345.06 340.163 344.527C340.808 343.276 340.299 341.664 339.083 341.109C337.904 340.57 281.557 340.59 280.444 341.129ZM256.528 360.619C255.945 361.241 253.785 364.018 251.729 366.791C249.673 369.564 247.883 371.955 247.752 372.104C247.621 372.253 246.801 371.466 245.931 370.355C242.404 365.853 241.503 365.347 239.64 366.817C238.649 367.598 238.462 368.775 239.13 370.03C239.933 371.539 246.079 378.662 246.813 378.934C248.451 379.542 249.302 378.731 254.951 371.182C257.988 367.123 260.656 363.461 260.878 363.044C261.399 362.069 261.042 360.658 260.109 360.003C258.916 359.165 257.695 359.375 256.528 360.619ZM280.847 361.903C279.162 362.596 278.625 364.773 279.815 366.091C280.438 366.782 280.824 366.791 309.815 366.791C338.805 366.791 339.191 366.782 339.815 366.091C340.681 365.132 340.62 363.449 339.685 362.512L338.925 361.749L310.238 361.681C294.461 361.644 281.235 361.744 280.847 361.903ZM280.203 372.789C278.948 373.919 278.865 375.397 279.992 376.527C280.669 377.206 281.148 377.222 300.294 377.222H319.903L320.754 376.369C321.222 375.899 321.605 375.281 321.605 374.995C321.605 374.018 320.836 372.78 319.99 372.393C319.403 372.125 313.321 372.007 300.108 372.007H281.071L280.203 372.789ZM330.037 372.357C328.432 373.005 328.053 375.251 329.343 376.467C330.076 377.157 330.511 377.222 334.343 377.222C336.651 377.222 338.793 377.125 339.101 377.007C339.41 376.888 339.888 376.354 340.163 375.821C340.808 374.569 340.299 372.958 339.083 372.403C338.071 371.94 331.154 371.905 330.037 372.357ZM281.155 393.106C279.255 393.489 278.538 396.086 279.944 397.496L280.705 398.259H309.815H338.924L339.685 397.496C340.682 396.496 340.682 394.806 339.685 393.806L338.925 393.043L310.412 393C294.73 392.976 281.564 393.024 281.155 393.106ZM280.693 403.744C278.92 404.65 278.717 407.298 280.352 408.176C280.752 408.39 291.713 408.516 309.927 408.516C337.535 408.516 338.903 408.487 339.657 407.875C340.699 407.028 340.713 405.268 339.685 404.237L338.925 403.474L310.238 403.389C287.666 403.323 281.369 403.398 280.693 403.744ZM384.596 409.636L386.035 410.081L383.036 418.143C381.386 422.576 379.944 426.294 379.832 426.403C379.667 426.563 373.621 410.757 373.621 410.166C373.621 410.019 374.832 409.654 377.262 409.067C378.391 408.794 383.043 409.155 384.596 409.636Z" fill="#FFDF2D"/>
</svg>
